<svg xmlns="http://www.w3.org/2000/svg" viewBox="0 0 2748.64 1914.5"><defs><style>.cls-1{fill:#ebf3fa;}.cls-2{fill:#afcdfb;}.cls-14,.cls-2{opacity:0.3;}.cls-3{fill:#505fcc;}.cls-4{fill:#8791d8;}.cls-5{fill:#ffb27d;}.cls-6{fill:#6980e0;}.cls-7{fill:#20497a;}.cls-8{fill:#f99746;}.cls-9{fill:#ed7d2b;}.cls-10{fill:#8c9df4;}.cls-11{fill:#fca56b;}.cls-12{fill:#163560;}.cls-13{fill:#1f4d84;}.cls-15{fill:#b3cff9;}.cls-16{fill:#f4a36c;}.cls-17{fill:#0f2549;}.cls-18{fill:#cde3fd;}.cls-19{fill:#94b7ea;}.cls-20{fill:#77a4e5;}.cls-21{fill:#233862;}.cls-22{fill:#94b0ed;opacity:0.5;}.cls-23{fill:#abddda;}.cls-24{fill:#304f7f;}.cls-25{fill:#2b478b;}.cls-26{fill:#ed975d;}.cls-27{fill:#314387;}.cls-28{fill:#2557a0;}.cls-29{fill:#152949;}.cls-30{fill:#fff;}.cls-31{fill:#aec3ff;}.cls-31,.cls-33{opacity:0.8;}.cls-32{fill:#9db0f4;}.cls-33{fill:#496bad;}.cls-34{fill:#f78248;}</style></defs><title>Asset 1</title><g id="Layer_2" data-name="Layer 2"><g id="_лой_1" data-name="‘лой_1"><path class="cls-1" d="M2537,1905c-174.56,0-2376.34,1.19-2376.34.91-1-2.28-402.22-451.74,75.28-829C467.18,894.19,99.4,614.68,391.77,330.08c223-217,454.36,23.67,696-77.35,42.68-17.83,85.52-46.53,128.39-90.57A476.64,476.64,0,0,1,1295,97q6.51-4.32,13.16-8.42a526.55,526.55,0,0,1,52.64-28.41q18.26-8.55,37.18-15.82h0a611.17,611.17,0,0,1,61.63-20,702.53,702.53,0,0,1,91.9-17.92q20.51-2.65,41.33-4.19c269.94-20.17,573.72,93.31,730.49,259.17,31.57,33.4,175.09,206.21,61.95,443.75-71.43,150,213.14,345.11,279.53,537.59C2832,1727.33,2539.48,1899.3,2537,1905Z"/><path class="cls-2" d="M1761.92,713.64S1783.69,535,1886.75,428.33s204.24-132.65,208.1-92.1-161.52,104.66-227,196S1761.92,713.64,1761.92,713.64Z"/><path class="cls-2" d="M1784.73,762.61s27.13-128.48,108.78-199.46,156.83-83.48,157.07-53.76-124,65.83-177.42,128.07S1784.73,762.61,1784.73,762.61Z"/><path class="cls-2" d="M2301.57,649.65c-21.58-79.87-156.34-55-156.34-55s-91.58,139.69-118.2,143,55-134.72,55-134.72c-51.57-5-183,58.11-183,58.11s8.22,163-18.4,159.69.09-144.73.09-144.73c-49.92,15-96.53,73.14-96.53,73.14-58.28,94.79,66.44,164.74,66.44,164.74s1.63,56.56-33.35,121.41h0s-7.89,12-15.92,32.33h13.61c1.11-3.64,2.34-7.17,3.7-10.56a.14.14,0,0,1,0-.06l.06-.14c.94-2.1,2.28-5.1,4-8.74h0v0c4.16-8.13,7-14.14,8.75-18.48,0,0,0,0,0,0,12.47-25.54,30.44-58.81,42.41-65.78a26.13,26.13,0,0,1-2.91-6.25c.93,2,1.89,4.07,2.91,6.25,23.26,49.92,139.7,58.31,204.59,45s36.62-31.59,1.7-61.31S1972,925.6,1950.39,913.94s10-23.29,53.25-19.93,64.85,46.62,134.71,53.31,123.18-124.69,123.18-124.69c-48.25,15-134.74-11.72-138.05-28.36s124.77-14.9,144.74-19.88S2323.14,729.51,2301.57,649.65Z"/><path class="cls-2" d="M953.6,1073.28S812.1,943.16,654.43,927.9s-257.91,33.74-232.94,69.37,203.79-26.88,320.34,1.94S953.6,1073.28,953.6,1073.28Z"/><path class="cls-2" d="M969,1128.88s-111.07-85.61-226.62-86.72S557.06,1083,577.46,1107.31s146.41-32.43,232.94-18.86S969,1128.88,969,1128.88Z"/><path class="cls-2" d="M597.77,1271.09C578,1224.93,651.5,1186,651.5,1186s96.21,32,110.13,23.57-76.91-43.43-76.91-43.43c22.66-21.81,109-41.26,109-41.26s57.48,80.72,68.89,69.1-54.54-68.87-54.54-68.87c29.39-11.69,73.5-1.54,73.5-1.54,63.45,23.19,30.4,103.46,30.4,103.46s20.53,27.54,61.61,45.25h0a116.6,116.6,0,0,1,19.75,9.4l-6.47,5.13c-1.91-1.32-3.82-2.54-5.74-3.64l0,0-.09,0c-1.23-.65-3-1.57-5.17-2.68h0c-5-2.3-8.64-4.1-11.12-5.5h0c-15.55-7.47-36.63-16.54-45-15.35a16,16,0,0,0-1-4.07c.3,1.3.62,2.65,1,4.07,7.73,32.53-44.56,80.37-80.45,98.49s-29.33-1.25-23.89-28.55,43.21-51.16,49.11-64.85-13.52-7.32-32.85,10.56-13.32,46.62-44.06,76.12-105.61-13-105.61-13c28.6-11.06,59.73-56.33,55-65.5s-65,39.9-76.4,45.05S617.57,1317.24,597.77,1271.09Z"/><path class="cls-3" d="M1439.27,490.51s102.67-75.75,288.11,27.48c0,0,96,36.48,117.95,129.88a168.85,168.85,0,0,0,32.8,67.74,211.62,211.62,0,0,1,46.76,115.94,197.77,197.77,0,0,0,24.37,80c16,28.85,32.75,76.15,26.62,143,0,0,59.34,64,26,206.64,0,0,27.17,89.43-34.14,170.07,0,0,15.27,102.9-73.41,137.4,0,0-46.81,107-186.18,113.51a180.32,180.32,0,0,0-58.75,13c-26.53,10.66-74.19,21-142.66,3-111.26-29.26-100.1-96.78-100.1-96.78V506.92Z"/><path class="cls-3" d="M1379.42,490.51S1276.76,414.76,1091.31,518c0,0-100.52,38.21-119.37,136.57a121.75,121.75,0,0,1-27.36,56.24c-21.28,24.81-49.14,68.82-51.37,130.8a126.11,126.11,0,0,1-19.13,62.09c-14.63,23.52-31.79,63-32.54,119.2a125.66,125.66,0,0,1-13.43,54.69c-15,29.91-33.24,89.74-11.26,183.66,0,0-21.1,69.47,15.87,141.16a165.77,165.77,0,0,1,17.94,61.34c2.45,27.78,12.86,67.15,49.29,92.15a175.14,175.14,0,0,1,41.15,40c23.24,31.25,72.84,79.14,161.55,85.86a266.19,266.19,0,0,1,71.24,15.28c27.26,10,73.39,18.3,138.1,1.29,111.27-29.26,100.1-96.78,100.1-96.78V506.92Z"/><path class="cls-4" d="M1316.35,1217.42c-49.55-6-89.33-34.31-118.23-84.06l-.35-.6c-13.61-23.6-5.83-53.5,17.29-68.24a43.82,43.82,0,0,0,11.3-9.75s-50,7.23-110.33-17.59c-35.41-14.55-59.39-44.87-59.39-44.87.67,1,3.27,33.14,32.8,60,8.57,7.81,28.62,17.85,43,21,14.93,3.28,21.26,18.09,26.77,32.16a286.12,286.12,0,0,0,18.46,38.55c13,22.52,28.39,41.35,45.83,56.26-33.46,14.94-52.27,38.09-62.45,56.07-12.76,22.56-15,42-15.14,42.83,0,0,12.42-24,38.71-47.39,23.23-20.66,53.9-31,85.16-29.67C1291.68,1223.11,1316.35,1217.42,1316.35,1217.42Z"/><path class="cls-4" d="M1105.34,1364.44q-3.85,0-7.71-.22c-34.76-2-64.49-18.23-86-46.82-33.47-44.52-25.84-85-13.56-111.15.15-.31.29-.61.44-.91,5.09-10.61,7.94,9.24,7.33,21-1.31,25.13,18.5,63.94,43.14,85,28.53,24.33,74.75,23.79,110,25,13.19.44,24.31,1.32,12.54,9.2C1154.65,1356.7,1128.77,1364.44,1105.34,1364.44Z"/><path class="cls-4" d="M1033.93,1497.49a26,26,0,0,1-34.17-9.09c-42.13-67.62-98.58-116.67-99.3-117h0c3.53,1.61,87,40.51,133.47,126.09Z"/><path class="cls-4" d="M919,1153.77c10-19.07,36.31-26.16,56.7-28.75,24.27-3.08,58.26,1.18,58.26,1.18-3.2-.36-53.43-46.77-110.39-10.64-3.57-34.25-45.72-49.21-45.72-49.21a127,127,0,0,1,12.84,22.88c5.33,12.24,10.89,30.52,7.16,48.12-3.49,16.49-14.82,30.24-33.67,40.87C864.15,1178.22,904.1,1186,919,1153.77Z"/><path class="cls-4" d="M1212.72,964c20.66-6.12,44.08,7.79,60.15,20.6,19.13,15.25,39.77,42.59,39.77,42.59-2-2.54-3.72-70.9-69.33-86.55,22.06-26.45,3.41-67.09,3.41-67.09a127.69,127.69,0,0,1-7.46,25.15c-5.06,12.35-14.28,29.09-29.51,38.69-14.25,9-32,10.45-52.77,4.35C1157,941.74,1179.23,975.83,1212.72,964Z"/><path class="cls-4" d="M1518.15,1171.28c53.68-6.54,96.77-37.18,128.08-91.07l.38-.65c14.75-25.56,6.32-57.95-18.73-73.93a47.5,47.5,0,0,1-12.25-10.56s54.13,7.83,119.53-19.05c38.36-15.77,64.34-48.61,64.34-48.61-.73,1.05-3.54,35.9-35.53,65-9.29,8.46-31,19.34-46.63,22.78-16.18,3.55-23,19.59-29,34.83a309.81,309.81,0,0,1-20,41.76c-14.08,24.4-30.76,44.8-49.65,61,36.25,16.18,56.63,41.26,67.65,60.74,13.83,24.44,16.3,45.52,16.4,46.4,0,0-13.45-26-41.93-51.33-25.17-22.39-58.39-33.62-92.25-32.16C1544.88,1177.44,1518.15,1171.28,1518.15,1171.28Z"/><path class="cls-4" d="M1712.44,1364.44q3.84,0,7.7-.22c34.76-2,64.5-18.23,86-46.82,33.47-44.52,25.85-85,13.56-111.15-.14-.31-.29-.61-.43-.91-5.1-10.61-8,9.24-7.34,21,1.31,25.13-18.49,63.94-43.14,85-28.53,24.33-74.74,23.79-110,25-13.19.44-24.32,1.32-12.55,9.2C1663.12,1356.7,1689,1364.44,1712.44,1364.44Z"/><path class="cls-4" d="M1555.48,945q2.8-1,5.57-2.14c24.85-10.37,42.3-29.8,50.48-56.19,12.73-41.07-3.49-68.69-19.34-84.63l-.55-.55c-6.52-6.44-3.38,8.78.16,17.18,7.57,18,3.31,51.42-9.16,73.08-14.43,25.07-48.32,36.49-73.73,46.36-9.52,3.7-17.41,7.18-6.74,9.92C1517.43,951.94,1538.37,951,1555.48,945Z"/><path class="cls-4" d="M1730.8,1491.85a26.06,26.06,0,0,0,35.32,2.16c61.84-50.79,131.23-79.47,132-79.55h0c-3.87.41-95.55,11-167.34,77.39Z"/><path class="cls-4" d="M1756.27,797.81c-10-19.07-36.32-26.17-56.71-28.75-24.27-3.09-58.26,1.18-58.26,1.18,3.2-.37,53.43-46.77,110.39-10.64,3.57-34.25,45.72-49.22,45.72-49.22a128.06,128.06,0,0,0-12.84,22.89c-5.32,12.23-10.89,30.52-7.16,48.12,3.49,16.49,14.82,30.24,33.67,40.86C1811.08,822.25,1771.13,830.07,1756.27,797.81Z"/><path class="cls-4" d="M1898.81,1153.77c-10-19.07-36.32-26.16-56.71-28.75-24.27-3.08-58.25,1.18-58.25,1.18,3.19-.36,53.42-46.77,110.38-10.64,3.57-34.25,45.72-49.21,45.72-49.21a127.73,127.73,0,0,0-12.84,22.88c-5.32,12.24-10.89,30.52-7.16,48.12,3.49,16.49,14.82,30.24,33.67,40.87C1953.62,1178.22,1913.67,1186,1898.81,1153.77Z"/><rect class="cls-4" x="851.29" y="1053.83" width="1118.86" height="25.04" transform="translate(341.06 2474.56) rotate(-89.87)"/><path class="cls-5" d="M1923.09,1204.47s-3.15-7.08-5.19-10.44-10.76-13.18-12.24-11-7.42,17.21-4.27,21.4-.21,11.5,15.48,15.92Z"/><path class="cls-6" d="M2097.38,1159.73s-80.29,67-111.59,60.81c-24.48-4.85-62-17.73-62-17.73l-7.51,19.22s33.69,45.7,68.82,46c54.9.47,95.47-23.77,95.47-23.77Z"/><path class="cls-7" d="M2238.18,1866.6s-2.33,37.6-9.61,38.14c-1,.07-36.89.07-36.89.07l-45.86-.27s.3-11,13.71-13.38,35.84-11.76,44-29.47C2212,1843.05,2238.18,1866.6,2238.18,1866.6Z"/><path class="cls-8" d="M2240.82,1869.22s-13.94,4.66-24.82,4.66a91.15,91.15,0,0,1-23.18-3.31s-2.62-25.38-17.07-81.3c-7.57-29.32-18.38-67-33.77-113.84-42.53-129.43-55.47-205.15-56.65-212.32l-.09-.56.14-.07,130.77-57.42s-16.16,178.39,4.46,246.86a287.36,287.36,0,0,1,7.49,32.81C2241.12,1759.1,2240.82,1869.22,2240.82,1869.22Z"/><path class="cls-9" d="M2175.75,1789.27c-7.57-29.32-18.38-67-33.77-113.84-42.53-129.43-55.47-205.15-56.65-212.32,0-.21,0-.41.05-.63l130.77-57.42s-16.16,178.39,4.46,246.86C2223.5,1661.49,2175.75,1789.27,2175.75,1789.27Z"/><path class="cls-7" d="M2136,1866.6s-2.34,37.6-9.61,38.14c-1,.07-36.89.07-36.89.07l-45.86-.27s.3-11,13.71-13.38,35.84-11.76,44-29.47C2109.89,1843.05,2136,1866.6,2136,1866.6Z"/><path class="cls-8" d="M2061.89,1409.27s-1.7,115.59,18.3,257.53S2093.41,1869,2093.41,1869s13.74,4.46,19.29,4.91c14.13,1.15,28.61-3.31,28.61-3.31s28.63-142,20.42-213,39.2-243.77,39.2-243.77Z"/><path class="cls-5" d="M2155.51,1130.09l-17.84,23-37.47,2c-.21-3-.76-15.58-1.24-27,0-.67-.05-1.34-.08-2-.41-9.69-.57-20.31-.57-20.31l29.71-20.61,11.14-8.55c0,.21,1.75,10.48,1.76,12C2141.05,1118.27,2155.51,1130.09,2155.51,1130.09Z"/><path class="cls-10" d="M2054.27,1414.27c.52,61,4.59,203.75,7.58,206.65,31.78,30.68,171.56-8.41,179-42.2s-28.17-433.33-82.45-449.29c-11.26-3.3-71.48,16.17-71.48,16.17a381.94,381.94,0,0,0-15.64,56.18c-2.29,11.66-9.79,94.88-14.16,150.49-1.15,14.82-2.1,27.68-2.66,36.7C2054.22,1392.69,2054.16,1401.77,2054.27,1414.27Z"/><path class="cls-11" d="M2138.52,1089.77c-4.33,14.24-29.1,31.67-39.56,38.4,0-.67-.05-1.34-.08-2-.41-9.69-.74-29.27-.74-29.27l29.88-11.65C2135.4,1083.35,2140.3,1083.91,2138.52,1089.77Z"/><path class="cls-5" d="M2088.32,1100.38s55.5,17.31,65.75-17.41,24.31-55.88-10.69-68.4-45.82-1.31-52.06,9.45S2074.15,1095,2088.32,1100.38Z"/><path class="cls-12" d="M2093.5,1020.67s3.54,40.41,11.89,38.66,19.38-2,18.16,10.14,10.29,32.84,18,32.8c25.84-.16,54.3-69.68,47.23-82.25C2168.33,983.73,2064,976.41,2093.5,1020.67Z"/><path class="cls-6" d="M2101.66,1130.32c.72-.31,41.31-18.52,46.06-17s10.66,16.07,10.66,16.07l-71.48,16.16S2092.53,1134.16,2101.66,1130.32Z"/><path class="cls-13" d="M1838.68,1334.71l208.71,221.65a11,11,0,0,0,15.44.16l14.2-13.36a11,11,0,0,0,.78-15.42l-209.12-222.06c-4-4.28-7.54-.91-12,3.29l-14.2,13.35C1838,1326.52,1834.65,1330.43,1838.68,1334.71Z"/><path class="cls-9" d="M1953.1,1456.15l94,99.89a11.18,11.18,0,0,0,15.75.48l14.2-13.36a11.17,11.17,0,0,0,.48-15.74l-94-99.89Z"/><path class="cls-12" d="M1600.71,1316.25c67.49,71.74,180.37,75.18,252.12,7.68a178.35,178.35,0,1,0-244.43-259.79c-.94.89-1.88,1.78-2.79,2.7A178.33,178.33,0,0,0,1600.71,1316.25Zm15.3-244a167.29,167.29,0,1,1-7.21,236.41A166.44,166.44,0,0,1,1616,1072.22Z"/><g class="cls-14"><path class="cls-15" d="M1608.8,1308.63A167.24,167.24,0,1,0,1702,1029.25a168.47,168.47,0,0,0-27.28,7.12,167.34,167.34,0,0,0-65.87,272.26Z"/></g><path class="cls-6" d="M2054.27,1414.27c132.63-89.81,121.82-213.34,121.82-213.34-51.75,29.19-103.05,98.29-119,151.34-1.15,14.82-2.1,27.68-2.66,36.7C2054.22,1392.69,2054.16,1401.77,2054.27,1414.27Z"/><path class="cls-5" d="M1937.37,1368.81c-8.84-2-14.78-8.72-16-9.89,0,0-3.77.26.62,8.3.37.67,1.18,2.4,1.8,3.62a.79.79,0,0,1-.66,1.13c-5.1.39-10.23-1.63-20.06.42-1.36.28-1.75,3.53-1.7,4.91.09,2.34-.08,5,2.64,8.57,1.59,2.08,6,4.33,15.85,8.29,3.74,1.51,14.46.37,24.51-3.08l8-3.71-2.49-14.92-2,.42C1944.68,1373.54,1940.71,1369.63,1937.37,1368.81Z"/><path class="cls-10" d="M2137.18,1145.6s112.66,21.45-33.15,184.6c-23.32,26.09-149.31,60.07-149.31,60.07s-12.78-10.87-6.34-19.68c0,0,86.75-63,105.84-73,8.58-4.5,33.32-100.54,47.32-123.67S2137.18,1145.6,2137.18,1145.6Z"/><path class="cls-5" d="M1920,1206.45s-3.68-7-4.4-10.75-5.36-14.55-7.27-16.46c-.77-.76-3.29.23-3.59,3.51-.13,1.43.57,4,1.81,7.12,2,5.05,1.69,11.88,2.39,14.16C1910.71,1209.71,1920,1206.45,1920,1206.45Z"/><path class="cls-16" d="M735.22,1899.4c-1,2.72-81.89,5.77-82.27-2.8,0-.13,0-.28,0-.44s0-.46,0-.72a23.27,23.27,0,0,1,.19-2.65.13.13,0,0,1,0-.06c.22-1.68.59-3.35,1-5a57.49,57.49,0,0,1,2.54-7.26c1.47-3.79,2.94-7.84,2.74-11.5-.58-11.77-4.82-36.54-4.82-36.54l23.28-2.59s3.68,34.18,8.1,41.85c6,10.39,16.44,16.11,27.49,19.26,1.24.36,2.48.71,3.71,1C727,1894.68,736.12,1897,735.22,1899.4Z"/><path class="cls-17" d="M736,1899.5c-1,2.72-8.59,8.76-27.74,7.93s-15.42-4.19-29.15-3-25.79.74-26.17-7.83c0-.13,0-.28,0-.44,0-.83.08-2,.2-3.37a.13.13,0,0,1,0-.06c.22-1.68.59-3.35,1-5a57.49,57.49,0,0,1,2.54-7.26c8.68,2.29,20.19,12.6,32.21,14.16a65.75,65.75,0,0,0,28.17-2.47l.12-.17C728.82,1894.1,736.92,1897.09,736,1899.5Z"/><path class="cls-18" d="M747,1546.31h0a13.21,13.21,0,0,1-13.21-13.2v-83.38h26.41v83.38A13.2,13.2,0,0,1,747,1546.31Z"/><path class="cls-19" d="M747,1542.48h0a9.81,9.81,0,0,1-9.81-9.81V1503h19.62v29.65A9.81,9.81,0,0,1,747,1542.48Z"/><path class="cls-18" d="M786.43,1546.31h0a13.2,13.2,0,0,1-13.21-13.2v-83.38h26.41v83.38A13.2,13.2,0,0,1,786.43,1546.31Z"/><path class="cls-19" d="M786.43,1542.48h0a9.81,9.81,0,0,1-9.81-9.81v-37.88h19.62v37.88A9.81,9.81,0,0,1,786.43,1542.48Z"/><path class="cls-18" d="M711.34,1546.31h0a13.2,13.2,0,0,1-13.2-13.2v-83.38h26.4v83.38A13.2,13.2,0,0,1,711.34,1546.31Z"/><path class="cls-19" d="M711.34,1542.48h0a9.81,9.81,0,0,1-9.81-9.81v-37.88h19.62v37.88A9.81,9.81,0,0,1,711.34,1542.48Z"/><rect class="cls-20" x="681.68" y="1532.41" width="7.42" height="22.05"/><rect class="cls-20" x="808.66" y="1532.41" width="7.42" height="22.05"/><rect class="cls-20" x="681.68" y="1532.41" width="134.4" height="6.44"/><path class="cls-21" d="M507.75,1253.46s-14.54-8-30.9-2.93c-33,10.15-17.12,37.3-33.86,48.18s-32.05,44.14-21.49,61.17,26,31.54,35.41,19.92,18.79-27.71,18.87-49.71c.08-19.86,8.05-60.23,21.71-57.13S507.75,1253.46,507.75,1253.46Z"/><path class="cls-21" d="M556.7,1282.77s-15.94-35.59-49-29.31-37.55,68.17-15.79,76.15C507.09,1335.16,556.7,1282.77,556.7,1282.77Z"/><path class="cls-22" d="M644.48,1659.88H553.79L498.72,1469.5a57.35,57.35,0,0,0-53.78-41.39l-95.36-1.66c-27.08-.62-47.93,22.39-43.1,47.56l25.6,428.45a5.29,5.29,0,0,0,5.34,5.65h.38a3.43,3.43,0,0,0,3.54-2.86l3.77-211.46h163.1l30.24,211.46a3.43,3.43,0,0,0,3.54,2.86h.39a5.28,5.28,0,0,0,5.33-5.65l-20.9-208.67H644.48a7.85,7.85,0,0,0,7.82-7.83v-18.25A7.85,7.85,0,0,0,644.48,1659.88Z"/><path class="cls-23" d="M450.4,1468.91l30.5,77.2s29.4,34.64,53,23.47l-74.76-145.17Z"/><path class="cls-21" d="M675.63,1624.83c-22.16-22-159.77-80.23-206.24-85.21l-53.1-19.41s-21.65,51.84-22,101.37c-.17,23.1,28.34,38.3,6.77,38.3,0,0,188-.74,195.19,0,11.82,1.22,5.17,29.06,9.06,55.86s53.07,139.37,53.07,139.37,14.32,4.59,20.94,4.2c7.12-.41,10.42-2.8,10.42-2.8S702.53,1651.57,675.63,1624.83Z"/><path class="cls-5" d="M613.77,1899.23c.37,8.57,81.26,5.52,82.27,2.81.9-2.4-8.27-4.72-18.07-7.42-1.24-.33-2.47-.68-3.71-1-11-3.16-21.5-8.87-27.49-19.27-4.42-7.66-8.11-41.84-8.11-41.84l-23.27,2.59s4.24,24.77,4.83,36.54c.3,6.17-4.07,13.44-5.29,18.76A33.46,33.46,0,0,0,613.77,1899.23Z"/><path class="cls-24" d="M639.94,1907.06c13.73-1.18,10,2.17,29.15,3s26.73-5.21,27.74-7.92c.9-2.41-7.19-5.4-18.86-7.52l-.13.18a53.72,53.72,0,0,1-28.27,4.21c-12.82-1.66-25.79-7.42-34.64-8.64a33.46,33.46,0,0,0-1.16,8.86C614.14,1907.8,626.2,1908.25,639.94,1907.06Z"/><path class="cls-25" d="M643.2,1625.13c-13-13.6-99.26-41.49-143-55.74-10.54-3.43-112.93-54.18-112.93-54.18s-16.19,144.66,3.34,144.85c36.59.37,178.25,6.82,183.79,7.22,16.77,1.2,8,40,14.6,70.79,6.79,31.48,26.42,117,26.42,117s14.32,4.59,20.94,4.2c7.12-.41,10.42-2.8,10.42-2.8S669.42,1652.54,643.2,1625.13Z"/><path class="cls-5" d="M523.79,1336.22s-.83,5.85-2.15,13.09c-.8,4.34-1.77,9.19-2.84,13.57a70.79,70.79,0,0,1-2.81,9.34c-3.48,8.64-6.23,17-4.62,18.76.13.13-18.28,2-28.5-5.76-9.61-7.25-13.61-26.74-13.44-26.77,5.21-1,11.29-2.1,22-29.11l1.9,1.22Z"/><path class="cls-26" d="M521.64,1349.31c-.8,4.34-1.77,9.19-2.84,13.57-17.43-11.44-23.66-21.62-27.19-31.07Z"/><path class="cls-5" d="M529.94,1353.69s-45.38-7.63-40.2-35.82,2.83-48.15,32-44.48,32.83,15.47,33.39,25.3S541.88,1355,529.94,1353.69Z"/><path class="cls-21" d="M554,1283.11s-30,24.18-49.93,25.55-21.84-7.84-21.84-7.84,6.64-6.74,14.2-22.18a14,14,0,0,1,11.78-7.85C522.42,1270,549.31,1270.37,554,1283.11Z"/><path class="cls-21" d="M535.83,1280.25s9.45,9.77,12.3,16.87c2.74,6.85,3.09,23,.52,29.38,0,0,16.19-29.07,8.05-43.73C548.08,1267.23,535.83,1280.25,535.83,1280.25Z"/><path class="cls-10" d="M544.6,1408.57c0-19-28.35-37-28.35-37s-6.89,18.92-40.36-15.84c-1.19-1.23-79,50.18-79,50.18s-13,66.65-15.91,97.12c-8.63,91.75,2.26,164.26,2.26,164.26s112.32,20,186.48-96.32c0,0-26.21-60-26.21-76.74C543.51,1483.42,544.59,1417.11,544.6,1408.57Z"/><path class="cls-6" d="M394.3,1523.92s31.73,42.38,123.11,35l-42.57-40.31Z"/><path class="cls-6" d="M509.09,1512.27l-10.34,13.34c-3.57.6-37.36-14.13-53.58-20.53-22.32-8.81-11.81-64.48-4.74-45.63C449.84,1484.55,481.19,1498.1,509.09,1512.27Z"/><rect class="cls-27" x="577.93" y="1357.33" width="31.66" height="114.99" transform="translate(1725.03 2451.43) rotate(155.27)"/><rect class="cls-27" x="567.55" y="1344.09" width="15.13" height="54.95" transform="translate(1671.34 2376.67) rotate(155.27)"/><path class="cls-27" d="M502.41,1537.81l25.12-3.87c-.07-.46-7-47.42,5.15-84.09s53.87-43.58,54.29-43.64l-3.84-25.13c-2.34.36-57.49,9.36-74.57,60.76C494.41,1484.42,502.08,1535.65,502.41,1537.81Z"/><path class="cls-27" d="M463.07,1527.3H571.74a0,0,0,0,1,0,0v4.36a24.55,24.55,0,0,1-24.55,24.55H483.49a20.41,20.41,0,0,1-20.41-20.41v-8.49A0,0,0,0,1,463.07,1527.3Z" transform="translate(1034.82 3083.51) rotate(180)"/><rect class="cls-27" x="517.41" y="1494.22" width="117.6" height="8.47" transform="translate(1152.41 2996.91) rotate(180)"/><rect class="cls-27" x="553.45" y="1541.76" width="81.55" height="14.45" transform="translate(1188.46 3097.97) rotate(180)"/><rect class="cls-27" x="585.23" y="1535.88" width="25.77" height="5.88" transform="translate(1196.23 3077.63) rotate(180)"/><path class="cls-5" d="M554.36,1530.72s6.3,8.12,8.36,9.09a6.19,6.19,0,0,0,3.4.73l-4.24-7.64Z"/><path class="cls-5" d="M552.9,1522.35l18.31,8.89a3.24,3.24,0,0,1-3,1.17c-2.25-.1-7.94-2.18-7.94-2.18Z"/><path class="cls-5" d="M518,1526.38s30-6.7,34.9-4,16.71,12.38,18.19,15.76-10.8-2.56-14.79-3.63c-2.59-.7-9.4,1.67-12.77,2.79-14.19,4.73-22.88,2.3-22.88,2.3Z"/><rect class="cls-28" x="418.62" y="1554.28" width="425.67" height="12.02"/><path class="cls-28" d="M842.45,1914.5c-.88-1.24-2.71-3.85-14.21-178.28-5.66-85.91-10.93-172.28-11-173.15l4.5-.27c5.73,94.15,21.33,340.46,24.55,349.43a1.24,1.24,0,0,0-.18-.32Z"/><path class="cls-28" d="M415,1912.61l-3.68-2.6a1.77,1.77,0,0,0-.17.31c3.22-8.93,19.38-253.89,25.34-347.53l4.5.29c-.06.86-5.53,86.75-11.38,172.2C417.67,1908.76,415.84,1911.36,415,1912.61Z"/><path class="cls-10" d="M475.89,1355.72s-45.87,0-61.09,15.23c-23.86,23.88-42.07,128.29-24.65,149.26,19.62,23.61,131.14,24.84,131.14,24.84s2.68-4.86-3.29-18.67c-1.26-2.9-72.83-31.68-75-35.5s-4.12-57.6-1.65-66.58S475.89,1355.72,475.89,1355.72Z"/><path class="cls-5" d="M1611.81,671.16a6.54,6.54,0,0,1,1.17,7l0,0c-1.69,4.66-7.27,9.88-13.75,15.08-.82.67-1.56,1.28-2.2,1.84l-.5.44-.38.35c-6,5.57-3.77,6.85-14.63,18.15-12.38,12.89-20.9,13.12-23.33,11.94-2.05-1,2.12-7.83,6.74-15.51l.67-1.12,1.84-3.08c5.41-9.24,4-13.58,2.74-27.34-1.05-11.17-17.39-62.44-17.39-62.44l23.72-4.09s7.15,40.83,15,47.11c4.21,3.35,8.92,3.4,13,5.88.29.17.57.35.84.53A31.31,31.31,0,0,1,1611.81,671.16Z"/><path class="cls-21" d="M1611.81,671.16a6.54,6.54,0,0,1,1.17,7l0,0c-2.06,4.66-7.5,9.85-13.77,15-.82.68-1.54,1.31-2.18,1.89l-.5.44-.38.35c-6,5.57-3.77,6.85-14.63,18.15-12.38,12.89-20.9,13.12-23.33,11.94-2.05-1,2.12-7.83,6.74-15.51A52.77,52.77,0,0,0,1587,694.23c7.18-9.17,12.06-20.85,17-28l1.39-.26A31.31,31.31,0,0,1,1611.81,671.16Z"/><path class="cls-5" d="M1420.49,656.34c-1.46,7.33-11.9,6.1-23.57,3.25s-8.89.54-25.49-1.3-21.63-8-22.13-10.49c-.46-2.19,7.75-3,16.54-4,1.11-.12,2.22-.26,3.33-.4,9.94-1.24,17.21-7.65,26.23-12.92,8.55-5,21.3-25.3,21.3-25.3l22.77,1.81s-12,18.14-16.57,26c-2.72,4.64-2.57,10.78-2.23,15.51A29.47,29.47,0,0,1,1420.49,656.34Z"/><path class="cls-21" d="M1396.92,659.59c-11.66-2.85-8.89.54-25.49-1.3s-21.63-8-22.13-10.49c-.46-2.19,7.75-3,16.54-4l.09.17a46.76,46.76,0,0,0,23.77,7.39c11.26.27,23.19-3,31-2.83a29.47,29.47,0,0,1-.18,7.79C1419,663.67,1408.59,662.44,1396.92,659.59Z"/><path class="cls-21" d="M1507.74,510.77,1529,568l27.78,74.77a44.92,44.92,0,0,0,14.76-1.35c6.65-1.92,14.28-6.94,14.28-6.94s-7.72-80.29-22.11-126.38c-3.69-11.83-7.82-21.4-12.38-26.78C1529,455,1507.74,510.77,1507.74,510.77Z"/><path class="cls-25" d="M1529.37,419.83c12.12-3.91,43.73-.06,78,6.14a23.25,23.25,0,0,0,24-10.84h0l86.28-6.74s34.37,68.32,8.74,103c-15,20.27-65.45,17.37-80.74,14.23-42-8.62-89.82-33.59-96-34.83-10.14-2-14.2,18.26-24.34,39.56S1430,624.71,1430,624.71s-13.1.13-18.51-1.9c-5.81-2.18-7.94-5-7.94-5S1497.93,430,1529.37,419.83Z"/><path class="cls-10" d="M1739.36,467.79c-.37,49.58-13.17,72.36-13.17,72.36-111.08-14.91-135.66-117.06-135.66-117.06,23-.44,32.51-14.7,32.51-14.7l93.5-59.65,5.68-3.63,5.85-3.72s1.75,9.44,3.88,24.68a777.84,777.84,0,0,1,7.2,82.85C1739.33,455.17,1739.41,461.48,1739.36,467.79Z"/><path class="cls-29" d="M1631.9,296.31c30.72,16.91,93,52,93.38,51.76,0,0,22.91,8.63,35.9,0,21.66-14.39,33.28-53.11-6.33-86.43-19.76-16.61-33.8-20.66-35.93-47.19-1.16-14.46-21-62.29-53.92-57.46a45.16,45.16,0,0,1-8,.48,30.62,30.62,0,0,0-16.48,4.29C1622.05,172.78,1585.84,289.76,1631.9,296.31Z"/><path class="cls-5" d="M1657.65,281.91c-.14.08,15.12,5.29,25.32.77,9.59-4.24,16.86-20,16.72-20-4.37-.2-9.35-7.18-12.85-29l-1.86.66-31.25,11.25s2.27,10,3.73,19.57C1658.69,273.09,1659.36,280.77,1657.65,281.91Z"/><path class="cls-26" d="M1653.73,245.51s1.25,5.41,3.07,15.51c18-3.23,25.65-17,28.18-26.76Z"/><path class="cls-5" d="M1649.08,255.46s42.75-5.74,38.77-32.31-1.15-45.2-28.61-42.66S1628,194,1627.17,203.15,1637.86,256.27,1649.08,255.46Z"/><path class="cls-29" d="M1628.73,188.59s27.37,23.58,46,25.48,25.67-4.07,25.67-4.07a72.78,72.78,0,0,1-17.58-23.81,13.1,13.1,0,0,0-10.79-7.72C1658.72,177.32,1633.52,176.8,1628.73,188.59Z"/><path class="cls-29" d="M1645.84,186.47s-9.16,8.86-12,15.42c-2.78,6.34-3.62,21.49-1.4,27.51,0,0-14.27-27.74-6.19-41.21C1634.77,173.9,1645.84,186.47,1645.84,186.47Z"/><path class="cls-10" d="M1621.65,344.89c1.29,86.54.35,68.46,9.82,76.67,2.28,2,8.69,3.15,17.13,3.71,26.54,1.76,73.19-2.61,75-7.51,6.12-17,1.79-22.24,6.9-48.22.53-2.77,1.19-5.76,2-9,4.25-17.84,8.4-23.91-6.71-52.58-13.7-26-27.66-47.21-28.94-46.45-36.15,21.45-39.33,3.59-39.33,3.59S1621,302.67,1621.65,344.89Z"/><path class="cls-25" d="M1529,568l27.78,74.77a44.92,44.92,0,0,0,14.76-1.35c6.65-1.92,14.28-6.94,14.28-6.94s-7.72-80.29-22.11-126.38Z"/><path class="cls-10" d="M1657.46,265.08s-32.79,4.8-37.47,22.89c-4.16,16.07-19,107.12-19,107.12s6.7,15.75,15.43,7,27.49-90.94,27.49-90.94Z"/><path class="cls-5" d="M1647.34,412.17s-5.49,7.08-7.29,7.92a5.36,5.36,0,0,1-3,.64l3.7-6.66Z"/><path class="cls-5" d="M1648.6,404.88l-15.94,7.75a2.82,2.82,0,0,0,2.64,1c2-.09,6.91-1.9,6.91-1.9Z"/><path class="cls-6" d="M1739.15,448.92c-24.66-2-86.9-22.93-76.26-37.73,4.92-6.85,37.89-9.9,54.9-31.6,4.59-5.85-.57-21.81-1.25-30.85-.28-3.89-.09-6.72,1.25-7.35s2.81,1,4.43,3.72c4.27,7,8.91,21.15,8.91,21.15l.82-.19A777.84,777.84,0,0,1,1739.15,448.92Z"/><path class="cls-5" d="M1679,408.39s-26.18-5.83-30.41-3.51-14.54,10.79-15.84,13.73,9.41-2.23,12.89-3.16c2.25-.61,8.18,1.45,11.12,2.43,12.35,4.12,19.93,2,19.93,2Z"/><path class="cls-10" d="M1696.79,261.49s34.91,2.32,47.08,19.29c17.13,23.9,35.51,126.07,16,139.65-21.94,15.29-84.23,3.65-84.23,3.65s-5.83-17.32,1-18c18.56-1.77,54.82-9.49,54.48-17.59-.52-12.32-23.38-53.19-23.38-61.3S1696.79,261.49,1696.79,261.49Z"/><polygon class="cls-8" points="1512.41 423.09 1679.01 423.09 1679.01 426.77 1513.89 426.77 1512.41 423.09"/><polygon class="cls-8" points="1640.05 426.77 1513.89 426.77 1475.94 332.39 1601.91 332.39 1640.05 426.77"/><path class="cls-30" d="M1545.74,379.58c-1-3.32,1-6,4.28-6a8.6,8.6,0,0,1,7.73,6c1,3.32-1,6-4.28,6A8.6,8.6,0,0,1,1545.74,379.58Z"/><rect class="cls-31" x="452.27" y="408.06" width="831.88" height="557.04" rx="50.37"/><path class="cls-32" d="M673,468.54s24.17-18.08,67.82,6.56c0,0,22.59,8.71,27.77,31a40.69,40.69,0,0,0,7.72,16.18,50.85,50.85,0,0,1,11,27.67,47.71,47.71,0,0,0,5.73,19.1c3.78,6.89,7.71,18.18,6.27,34.15,0,0,14,15.28,6.11,49.33,0,0,6.4,21.34-8,40.59,0,0,3.6,24.57-17.28,32.8,0,0-11,25.55-43.82,27.1a41.94,41.94,0,0,0-13.83,3.11c-6.25,2.55-17.47,5-33.58.73-26.2-7-23.57-23.11-23.57-23.11V472.46Z"/><path class="cls-32" d="M658.91,468.54s-24.17-18.08-67.82,6.56c0,0-23.67,9.12-28.1,32.6a29.33,29.33,0,0,1-6.44,13.43,50.94,50.94,0,0,0-12.1,31.22,30.31,30.31,0,0,1-4.5,14.82c-3.44,5.62-7.48,15-7.66,28.46a30.34,30.34,0,0,1-3.16,13c-3.54,7.14-7.83,21.43-2.65,43.85a49.4,49.4,0,0,0,3.73,33.69,40,40,0,0,1,4.23,14.64c.57,6.64,3,16,11.6,22a41.39,41.39,0,0,1,9.68,9.55c5.48,7.46,17.15,18.89,38,20.49a61.71,61.71,0,0,1,16.77,3.65c6.42,2.38,17.28,4.37,32.51.31,26.19-7,23.57-23.11,23.57-23.11V472.46Z"/><path class="cls-33" d="M640.12,631.05c-12.64-1.56-22.78-8.87-30.15-21.74l-.09-.15a13.24,13.24,0,0,1,4.41-17.65,11.3,11.3,0,0,0,2.88-2.52s-12.74,1.87-28.13-4.55c-9-3.76-15.15-11.61-15.15-11.61a27.3,27.3,0,0,0,8.37,15.53,29,29,0,0,0,11,5.44c3.81.84,5.42,4.67,6.83,8.31a74.93,74.93,0,0,0,4.71,10,55.38,55.38,0,0,0,11.68,14.55,34,34,0,0,0-15.92,14.5,31.86,31.86,0,0,0-3.86,11.08A47.61,47.61,0,0,1,606.54,640a30.35,30.35,0,0,1,21.71-7.67A51.49,51.49,0,0,0,640.12,631.05Z"/><path class="cls-33" d="M594.39,677.16c-.61,0-1.21,0-1.82,0a26.57,26.57,0,0,1-20.24-11.18c-7.88-10.63-6.09-20.29-3.19-26.53,0-.08.07-.15.1-.22,1.2-2.53,1.87,2.21,1.73,5-.31,6,4.35,15.27,10.15,20.29,6.72,5.8,17.6,5.67,25.89,5.95,3.1.11,5.72.32,3,2.2A29.6,29.6,0,0,1,594.39,677.16Z"/><path class="cls-33" d="M631.33,577c-.44-.16-.87-.33-1.31-.51a20.59,20.59,0,0,1-11.88-13.41c-3-9.81.82-16.4,4.55-20.21l.13-.13c1.54-1.54.8,2.1,0,4.1-1.78,4.3-.78,12.28,2.16,17.45,3.4,6,11.37,8.71,17.36,11.06,2.24.89,4.09,1.72,1.58,2.37A22.91,22.91,0,0,1,631.33,577Z"/><path class="cls-33" d="M577.58,708.92a6.08,6.08,0,0,1-8.05-2.17,133.8,133.8,0,0,0-23.37-27.93h0c.83.39,20.48,9.67,31.42,30.1Z"/><path class="cls-33" d="M644.57,696.11c-4.22-2.91-5.13-9.26-5.14-14.1,0-5.76,2-13.57,2-13.57-.18.73-12.65,11.08-5.77,25.46-8.22-.19-13,9.21-13,9.21a30.25,30.25,0,0,1,5.79-2.31c3.06-.88,7.55-1.64,11.61-.24,3.8,1.31,6.73,4.36,8.69,9.08C648.75,709.64,651.78,700.54,644.57,696.11Z"/><path class="cls-33" d="M584.07,541.9c2.36-4.55,8.55-6.25,13.35-6.87,5.71-.73,13.71.29,13.71.29-.75-.09-12.58-11.17-26-2.54C584.3,524.6,574.38,521,574.38,521a30.39,30.39,0,0,1,3,5.46c1.25,2.92,2.56,7.29,1.68,11.49-.82,3.93-3.49,7.22-7.92,9.75C571.17,547.73,580.57,549.6,584.07,541.9Z"/><path class="cls-33" d="M550.52,626.87c2.35-4.55,8.54-6.25,13.34-6.86,5.72-.74,13.72.28,13.72.28-.75-.09-12.58-11.16-26-2.54-.84-8.18-10.76-11.75-10.76-11.75a30,30,0,0,1,3,5.46c1.26,2.92,2.57,7.29,1.69,11.49-.82,3.94-3.49,7.22-7.93,9.76C537.61,632.71,547,634.57,550.52,626.87Z"/><path class="cls-33" d="M625.33,507c5.28-3.63,6.41-11.56,6.43-17.61,0-7.19-2.5-16.94-2.5-16.94.23.91,15.8,13.83,7.21,31.79,10.26-.23,16.23,11.5,16.23,11.5a37.81,37.81,0,0,0-7.24-2.89c-3.81-1.1-9.42-2-14.49-.29-4.75,1.63-8.4,5.44-10.85,11.34C620.12,523.91,616.34,512.55,625.33,507Z"/><path class="cls-33" d="M592.27,724.45c4.92-3.39,6-10.8,6-16.44,0-6.71-2.33-15.82-2.33-15.82.21.86,14.75,12.92,6.72,29.68,9.59-.21,15.16,10.74,15.16,10.74a36,36,0,0,0-6.76-2.7c-3.56-1-8.8-1.9-13.53-.27-4.43,1.52-7.84,5.08-10.13,10.59C587.4,740.23,583.87,729.62,592.27,724.45Z"/><path class="cls-33" d="M691.56,631.05c12.64-1.56,22.78-8.87,30.15-21.74l.09-.15a13.24,13.24,0,0,0-4.41-17.65,11.3,11.3,0,0,1-2.88-2.52s12.74,1.87,28.13-4.55c9-3.76,15.15-11.61,15.15-11.61a27.25,27.25,0,0,1-8.36,15.53,29.08,29.08,0,0,1-11,5.44c-3.81.84-5.42,4.67-6.83,8.31a73.56,73.56,0,0,1-4.7,10,55.41,55.41,0,0,1-11.69,14.55,34,34,0,0,1,15.92,14.5A31.86,31.86,0,0,1,735,652.21,47.61,47.61,0,0,0,725.14,640a30.35,30.35,0,0,0-21.71-7.67A51.49,51.49,0,0,1,691.56,631.05Z"/><path class="cls-33" d="M737.3,677.16c.6,0,1.2,0,1.81,0a26.57,26.57,0,0,0,20.24-11.18c7.88-10.63,6.09-20.29,3.19-26.53a1.47,1.47,0,0,0-.1-.22c-1.2-2.53-1.87,2.21-1.72,5,.3,6-4.36,15.27-10.16,20.29-6.72,5.8-17.59,5.67-25.88,5.95-3.11.11-5.73.32-3,2.2A29.64,29.64,0,0,0,737.3,677.16Z"/><path class="cls-33" d="M700.35,577c.44-.16.88-.33,1.31-.51a20.59,20.59,0,0,0,11.88-13.41c3-9.81-.82-16.4-4.55-20.21l-.13-.13c-1.53-1.54-.79,2.1,0,4.1,1.78,4.3.78,12.28-2.16,17.45-3.4,6-11.37,8.71-17.35,11.06-2.24.89-4.1,1.72-1.59,2.37A22.91,22.91,0,0,0,700.35,577Z"/><path class="cls-33" d="M750.56,699.11a6.09,6.09,0,0,0,8.32.52,133.62,133.62,0,0,1,31.07-19h0c-.91.1-22.49,2.61-39.39,18.47Z"/><path class="cls-33" d="M687.11,696.11c4.22-2.91,5.13-9.26,5.14-14.1,0-5.76-2-13.57-2-13.57.19.73,12.65,11.08,5.77,25.46,8.22-.19,13,9.21,13,9.21a30.54,30.54,0,0,0-5.8-2.31c-3.06-.88-7.55-1.64-11.61-.24-3.8,1.31-6.72,4.36-8.69,9.08C682.93,709.64,679.91,700.54,687.11,696.11Z"/><path class="cls-33" d="M747.61,541.9c-2.35-4.55-8.55-6.25-13.35-6.87-5.71-.73-13.71.29-13.71.29.75-.09,12.58-11.17,26-2.54C747.38,524.6,757.3,521,757.3,521a30,30,0,0,0-3,5.46c-1.26,2.92-2.57,7.29-1.69,11.49.82,3.93,3.49,7.22,7.93,9.75C760.52,547.73,751.11,549.6,747.61,541.9Z"/><path class="cls-33" d="M781.17,626.87c-2.36-4.55-8.55-6.25-13.35-6.86-5.71-.74-13.72.28-13.72.28.76-.09,12.58-11.16,26-2.54.84-8.18,10.76-11.75,10.76-11.75a30,30,0,0,0-3,5.46c-1.25,2.92-2.57,7.29-1.69,11.49.83,3.94,3.49,7.22,7.93,9.76C794.07,632.71,784.66,634.57,781.17,626.87Z"/><path class="cls-33" d="M706.35,507c-5.28-3.63-6.41-11.56-6.42-17.61,0-7.19,2.49-16.94,2.49-16.94-.23.91-15.8,13.83-7.21,31.79C685,504,679,515.75,679,515.75a37.81,37.81,0,0,1,7.24-2.89c3.81-1.1,9.42-2,14.49-.29,4.75,1.63,8.4,5.44,10.85,11.34C711.56,523.91,715.34,512.55,706.35,507Z"/><path class="cls-33" d="M739.41,724.45c-4.92-3.39-6-10.8-6-16.44,0-6.71,2.32-15.82,2.32-15.82-.21.86-14.74,12.92-6.72,29.68-9.58-.21-15.16,10.74-15.16,10.74a36,36,0,0,1,6.76-2.7c3.56-1,8.8-1.9,13.53-.27,4.43,1.52,7.84,5.08,10.13,10.59C744.28,740.23,747.81,729.62,739.41,724.45Z"/><rect class="cls-33" x="532.73" y="603.05" width="267.09" height="5.89" transform="translate(58.67 1270.81) rotate(-89.86)"/><rect class="cls-25" x="832.81" y="449.98" width="220.63" height="22.47"/><rect class="cls-32" x="832.81" y="504.22" width="176.6" height="11.23"/><rect class="cls-25" x="832.81" y="534.48" width="115.3" height="11.23"/><rect class="cls-32" x="965.37" y="534.48" width="115.3" height="11.23"/><rect class="cls-25" x="1027.41" y="504.22" width="106.51" height="11.23"/><rect class="cls-34" x="1066.64" y="449.98" width="102.39" height="22.47"/><rect class="cls-25" x="519.27" y="814.07" width="176.22" height="17.94"/><rect class="cls-32" x="519.27" y="857.38" width="141.05" height="8.97"/><rect class="cls-32" x="519.27" y="881.55" width="92.09" height="8.97"/><rect class="cls-25" x="625.14" y="881.55" width="92.09" height="8.97"/><rect class="cls-32" x="674.69" y="857.38" width="85.07" height="8.97"/><rect class="cls-34" x="706.03" y="814.07" width="81.78" height="17.94"/><path class="cls-30" d="M1054.6,608.86a13.31,13.31,0,1,1-18.81.12A13.31,13.31,0,0,1,1054.6,608.86Z"/><path class="cls-30" d="M1001.34,664.9a14.81,14.81,0,1,1-20.94.13A14.81,14.81,0,0,1,1001.34,664.9Z"/><path class="cls-30" d="M935.57,635.45a12.64,12.64,0,1,1-17.87.11A12.64,12.64,0,0,1,935.57,635.45Z"/><path class="cls-30" d="M875.79,669.72a12.64,12.64,0,1,1-17.88.1A12.64,12.64,0,0,1,875.79,669.72Z"/><polygon class="cls-30" points="866.35 677.73 926.64 643.17 990.68 674.07 1044.44 617.56 1046.07 619.11 991.18 676.8 926.73 645.71 867.46 679.68 866.35 677.73"/><path class="cls-30" d="M1086.29,697.08a11,11,0,1,1,15.37-2.66A11,11,0,0,1,1086.29,697.08Z"/><path class="cls-30" d="M1122.18,644a12.27,12.27,0,1,1,17.1-3A12.28,12.28,0,0,1,1122.18,644Z"/><path class="cls-30" d="M1180,659.07a10.47,10.47,0,1,1,14.59-2.53A10.47,10.47,0,0,1,1180,659.07Z"/><path class="cls-30" d="M1224.17,622.88a10.47,10.47,0,1,1,14.59-2.53A10.47,10.47,0,0,1,1224.17,622.88Z"/><polygon class="cls-30" points="1230.79 615.04 1186.22 651.54 1129.64 635.04 1093.42 688.59 1091.88 687.54 1128.85 632.87 1185.8 649.48 1229.61 613.6 1230.79 615.04"/><polygon class="cls-30" points="969.98 878.25 957.12 810.75 951.51 839.58 875.75 839.58 875.75 835.02 947.75 835.02 957.17 786.62 970.61 857.21 976.66 833.38 989.74 833.38 998.67 791.83 1010.09 855.19 1016.1 830.93 1043.12 830.93 1053.07 798.32 1061.77 855.42 1068.76 830.93 1091.12 830.93 1097.68 795.13 1111.8 851.45 1116.91 830.93 1145.83 830.93 1147.34 848.03 1163.26 785.77 1173.73 831.09 1220.76 831.09 1220.76 835.65 1170.1 835.65 1163.04 805.06 1145.15 875 1141.65 835.49 1120.47 835.49 1111.81 870.27 1098.38 816.64 1094.92 835.49 1072.2 835.49 1060.41 876.78 1051.58 818.83 1046.5 835.49 1019.67 835.49 1009.39 877 998.28 815.36 993.43 837.94 980.21 837.94 969.98 878.25"/><path class="cls-30" d="M1241.93,922.65H853V757.93h388.92Zm-386.41-2.52h383.9V760.45H855.52Z"/><rect class="cls-21" y="1904.41" width="2748.64" height="8.8" rx="3.07"/></g></g></svg>